# xmcd CD database file
#
# Track frame offsets:
#	150
#	15409
#	29192
#	42997
#	51537
#	64605
#	77150
#	89877
#	99727
#	110095
#	122202
#	133430
#	144007
#	151717
#	165905
#	176152
#	188847
#	199715
#	212052
#	222662
#
# Disc length: 3142 seconds
#
# Revision: 1
# Processed by: cddbd v1.5.1PL0 Copyright (c) Steve Scherf et al.
# Submitted via: CDex 1.50
#
DISCID=2f0c4414
DTITLE=Marta Kubisova - Tajga blues
DYEAR=2000
DGENRE=Pop
TTITLE0=Tajga blues '69
TTITLE1=Legendy
TTITLE2=Já tu s tvari nemennou
TTITLE3=Pojdte, pejskové
TTITLE4=Kdo ti radu dá
TTITLE5=Addio
TTITLE6=Oci mel netecný
TTITLE7=Vsechny bolesti utisi láska
TTITLE8=Par metalu
TTITLE9=Svlikam lasku
TTITLE10=Uz se leto schovava
TTITLE11=Tvuj nuz tvuj krém tvuj ruzenec
TTITLE12=Kdo vynalez
TTITLE13=Cekam
TTITLE14=Sneznz muz
TTITLE15=Wie ein Fernruf
TTITLE16=Dein Schiff kommt wieder
TTITLE17=Die Sonne ist schoen
TTITLE18=Mach Musik fuer mich
TTITLE19=Taiga Blues
EXTD=YEAR: 2000
EXTT0=
EXTT1=
EXTT2=
EXTT3=
EXTT4=
EXTT5=
EXTT6=
EXTT7=
EXTT8=
EXTT9=
EXTT10=
EXTT11=
EXTT12=
EXTT13=
EXTT14=
EXTT15=
EXTT16=
EXTT17=
EXTT18=
EXTT19=
PLAYORDER=
